<?xml version="1.0" encoding="UTF-8" standalone="no"?>
<!-- Generator: Adobe Illustrator 23.0.1, SVG Export Plug-In . SVG Version: 6.00 Build 0)  -->

<svg
   version="1.1"
   id="Livello_1"
   x="0px"
   y="0px"
   viewBox="0 0 40000 40000"
   enable-background="new 0 0 200 200"
   xml:space="preserve"
   sodipodi:docname="Google_Calendar_icon_(2020).svg"
   width="40000"
   height="40000"
   xmlns:inkscape="http://www.inkscape.org/namespaces/inkscape"
   xmlns:sodipodi="http://sodipodi.sourceforge.net/DTD/sodipodi-0.dtd"
   xmlns="http://www.w3.org/2000/svg"
   xmlns:svg="http://www.w3.org/2000/svg"><defs
   id="defs10" /><sodipodi:namedview
   id="namedview10"
   pagecolor="#ffffff"
   bordercolor="#000000"
   borderopacity="0.25"
   inkscape:showpageshadow="2"
   inkscape:pageopacity="0.0"
   inkscape:pagecheckerboard="0"
   inkscape:deskcolor="#d1d1d1"
   inkscape:zoom="0.90509668"
   inkscape:cx="67.396115"
   inkscape:cy="82.311649"
   inkscape:window-width="1366"
   inkscape:window-height="705"
   inkscape:window-x="-8"
   inkscape:window-y="-8"
   inkscape:window-maximized="1"
   inkscape:current-layer="Livello_1" />
<g
   id="g10">
	<g
   transform="translate(3.75,3.75)"
   id="g9">
		<path
   fill="#ffffff"
   d="m 148.882,43.618 -47.368,-5.263 -57.895,5.263 -5.264,52.632 5.263,52.632 52.632,6.579 52.632,-6.579 5.263,-53.947 z"
   id="path1" />
		
		
		<path
   fill="#EA4335"
   d="m 148.882,196.25 47.368,-47.368 -23.684,-10.526 -23.684,10.526 -10.526,23.684 z"
   id="path4"
   style="fill:#d91c0d;fill-opacity:1" />
		<path
   fill="#34A853"
   d="M 33.092,172.566 43.618,196.25 H 148.881 V 148.882 H 43.618 Z"
   id="path5"
   style="fill:#12971b;fill-opacity:1" />
		<path
   fill="#4285F4"
   d="M 12.039,-3.75 C 3.316,-3.75 -3.75,3.316 -3.75,12.039 v 136.842 l 23.684,10.526 23.684,-10.526 V 43.618 H 148.881 L 159.407,19.934 148.882,-3.75 Z"
   id="path6"
   style="fill:#0b4ebd;fill-opacity:1" />
		<path
   fill="#188038"
   d="m -3.75,148.882 v 31.579 c 0,8.724 7.066,15.789 15.789,15.789 h 31.579 v -47.368 z"
   id="path7"
   style="fill:#0a7129;fill-opacity:1" />
		<path
   fill="#FBBC04"
   d="M 148.882,43.618 V 148.881 H 196.25 V 43.618 L 172.566,33.092 Z"
   id="path8"
   style="fill:#eeaa04;fill-opacity:1" />
		<path
   fill="#1967D2"
   d="M 196.25,43.618 V 12.039 c 0,-8.724 -7.066,-15.789 -15.789,-15.789 h -31.579 v 47.368 z"
   id="path9"
   style="fill:#34e0e7;fill-opacity:1" />
	</g>
</g>
</svg>
